<?xml version="1.0" encoding="utf-8"?>
<!-- Generator: Adobe Illustrator 26.0.1, SVG Export Plug-In . SVG Version: 6.00 Build 0)  -->
<svg version="1.1" id="Layer_1" xmlns="http://www.w3.org/2000/svg" xmlns:xlink="http://www.w3.org/1999/xlink" x="0px" y="0px"
	 viewBox="0 0 138 140" style="enable-background:new 0 0 138 140;" xml:space="preserve">
<style type="text/css">
	.st0{fill:#A2A5B1;}
</style>
<g>
	<path class="st0" d="M69.1,8c0.1,0,0.1,0,0.2,0s0.2,0,0.2,0c0.2,0,0.4,0,0.5-0.1c0.2-0.1,0.2-0.3,0.2-0.6l0.2-6.4l1.3,0l-0.2,6.3
		c0,0.4-0.1,0.8-0.2,1c-0.1,0.3-0.3,0.5-0.4,0.6c-0.2,0.2-0.4,0.3-0.6,0.3c-0.2,0.1-0.5,0.1-0.7,0.1c-0.1,0-0.2,0-0.3,0
		c-0.1,0-0.2,0-0.3,0L69.1,8z"/>
	<path class="st0" d="M80,10.2L78.7,10l0-1.5L77,8.2l-0.4,1.5l-1.2-0.2l2.5-8.1l1.9,0.3L80,10.2z M77.4,7.1l1.3,0.2l0-4.3L77.4,7.1z
		"/>
	<path class="st0" d="M87.1,9.4L89.6,4l1.8,0.5L89,12.5l-1.2-0.4l1.7-5.8l-2.6,5.5l-1.2-0.4l0.8-6l-1.7,5.7L83.7,11l2.4-8.1l1.8,0.5
		L87.1,9.4z"/>
	<path class="st0" d="M96.3,6.4L97.5,7l-3.4,7.7l-1.2-0.5L96.3,6.4z"/>
	<path class="st0" d="M102.1,9.2l1.1,0.7l-3.6,6.2l1.9,1.1l-0.6,1l-3-1.7L102.1,9.2z"/>
	<path class="st0" d="M110.7,23.7l5.3-4.4l0.9,0.8l-6.6,5.4l-1.5-1.3l4.7-7.1l1,0.9L110.7,23.7z"/>
	<path class="st0" d="M120.3,23.6l0.9,1l-6.3,5.6l-0.9-1L120.3,23.6z"/>
	<path class="st0" d="M124.4,28.5l0.8,1.1l-5.9,4.2l1.3,1.8l-1,0.7l-2-2.8L124.4,28.5z"/>
	<path class="st0" d="M128.9,35.4l0.6,1.2l-6.3,3.5l1,1.9l-1.1,0.6l-1.7-3.1L128.9,35.4z"/>
	<path class="st0" d="M126.4,50l-0.5-1.2l1.3-0.8l-0.6-1.5l-1.5,0.3l-0.4-1.1l8.3-1.8l0.7,1.8L126.4,50z M127.8,46.2l0.5,1.2
		l3.7-2.1L127.8,46.2z"/>
	<path class="st0" d="M128.2,56.3c0.1,0,0.1-0.1,0.1-0.1c0,0,0.1-0.1,0.2-0.1c0.1,0,0.2-0.1,0.3-0.1c0.1,0,0.2-0.1,0.4-0.1l1.3-0.3
		c0.4-0.1,0.6-0.2,0.8-0.4c0.1-0.2,0.1-0.4,0.1-0.7l-0.1-0.4l-3.3,0.8l-0.3-1.3l8.2-2l0.5,1.9c0.2,0.7,0.1,1.2-0.1,1.6
		c-0.2,0.4-0.7,0.6-1.3,0.8l-0.6,0.2c-0.8,0.2-1.5,0.1-1.9-0.4c-0.1,0.4-0.2,0.6-0.5,0.8c-0.3,0.2-0.6,0.3-1,0.4l-1.3,0.3
		c-0.2,0-0.4,0.1-0.5,0.2c-0.1,0.1-0.3,0.1-0.4,0.2L128.2,56.3z M134.9,53.2l-2.5,0.6l0.1,0.5c0.1,0.2,0.2,0.4,0.3,0.5
		c0.2,0.1,0.4,0.1,0.7,0l0.8-0.2c0.3-0.1,0.5-0.2,0.6-0.3s0.1-0.3,0.1-0.5L134.9,53.2z"/>
	<path class="st0" d="M137.7,61.8l-6.4,0.7c-0.3,0-0.5,0.1-0.6,0.3c-0.1,0.1-0.1,0.3-0.1,0.5c0,0.2,0.1,0.4,0.2,0.5
		c0.1,0.1,0.4,0.1,0.7,0.1l6.4-0.7l0.1,1.2l-6.4,0.7c-0.7,0.1-1.2,0-1.6-0.3c-0.4-0.3-0.6-0.8-0.7-1.4c-0.1-0.6,0.1-1.2,0.4-1.5
		c0.3-0.4,0.8-0.6,1.5-0.7l6.4-0.7L137.7,61.8z"/>
	<path class="st0" d="M138.1,73.3l-1.2,0l-6-2.6l0,2.5l-1.2,0l0.1-3.9l1.2,0l6,2.6l0-2.4l1.2,0L138.1,73.3z"/>
	<path class="st0" d="M136.3,86.1c-0.2,0.6-0.4,1.1-0.9,1.3s-1,0.3-1.6,0.1l-1.1-0.3c-0.7-0.2-1.1-0.4-1.4-0.8
		c-0.3-0.4-0.3-0.9-0.2-1.6l0.1-0.6l-3.1-0.7l0.3-1.3l8.2,1.9L136.3,86.1z M135.3,85.2l-2.8-0.7l-0.1,0.6c0,0.2,0,0.4,0.1,0.5
		c0.1,0.1,0.3,0.2,0.6,0.3l1.2,0.3c0.3,0.1,0.5,0.1,0.6,0c0.1-0.1,0.2-0.2,0.3-0.4L135.3,85.2z"/>
	<path class="st0" d="M132.5,91.9c0.6,0.2,1.1,0.6,1.3,1c0.2,0.5,0.2,1,0,1.6c-0.2,0.6-0.6,1-1,1.2s-1,0.2-1.6-0.1l-4.1-1.5
		c-0.6-0.2-1.1-0.6-1.3-1c-0.2-0.5-0.2-1,0-1.6c0.2-0.6,0.6-1,1-1.2c0.5-0.2,1-0.2,1.6,0.1L132.5,91.9z M127.9,91.6
		c-0.3-0.1-0.5-0.1-0.7-0.1s-0.3,0.2-0.4,0.4c-0.1,0.2-0.1,0.4,0,0.5c0.1,0.2,0.2,0.3,0.5,0.4l4.2,1.6c0.3,0.1,0.5,0.1,0.7,0.1
		c0.2-0.1,0.3-0.2,0.4-0.4c0.1-0.2,0.1-0.4,0-0.5c-0.1-0.2-0.2-0.3-0.5-0.4L127.9,91.6z"/>
	<path class="st0" d="M122.1,99.5c0.1,0,0.1,0,0.2,0s0.1,0,0.2,0c0.1,0,0.2,0.1,0.3,0.1s0.2,0.1,0.4,0.2l1.2,0.6
		c0.3,0.2,0.6,0.3,0.8,0.2c0.2,0,0.4-0.2,0.5-0.5l0.2-0.4l-3-1.6l0.6-1.2l7.4,4l-0.9,1.8c-0.3,0.6-0.7,1-1.1,1.1s-0.9,0-1.5-0.3
		l-0.6-0.3c-0.8-0.4-1.1-0.9-1.1-1.6c-0.3,0.2-0.6,0.3-0.9,0.3s-0.7-0.2-1.1-0.4l-1.1-0.6c-0.2-0.1-0.3-0.2-0.5-0.2
		c-0.1-0.1-0.3-0.1-0.5-0.1L122.1,99.5z M129.1,101.7l-2.3-1.2l-0.2,0.5c-0.1,0.2-0.2,0.4-0.1,0.6c0,0.2,0.2,0.4,0.5,0.5l0.7,0.4
		c0.3,0.1,0.5,0.2,0.7,0.2c0.2,0,0.3-0.1,0.4-0.4L129.1,101.7z"/>
	<path class="st0" d="M126.4,108.6l-2.4,3.3l-1-0.7l0.8-1.1l-5.9-4.2l0.8-1.1l5.9,4.2l0.8-1.1L126.4,108.6z"/>
	<path class="st0" d="M117.3,114.1l-1.2,1.3l-0.9-0.8l1.2-1.3l-2.6-2.3l0.9-1l6.2,5.7l-2.4,2.6l-0.9-0.8l1.5-1.6L117.3,114.1z"/>
	<path class="st0" d="M113.8,120c0.4,0.5,0.6,1,0.6,1.5c0,0.5-0.3,1-0.8,1.4s-1,0.6-1.5,0.5c-0.5-0.1-1-0.3-1.4-0.9l-2.8-3.3
		c-0.4-0.5-0.6-1-0.6-1.5c0-0.5,0.3-1,0.8-1.4c0.5-0.4,1-0.6,1.5-0.5c0.5,0.1,1,0.3,1.4,0.9L113.8,120z M109.9,117.5
		c-0.2-0.2-0.4-0.4-0.6-0.4s-0.3,0-0.5,0.2c-0.2,0.1-0.2,0.3-0.3,0.5c0,0.2,0.1,0.4,0.3,0.6l2.9,3.5c0.2,0.2,0.4,0.4,0.6,0.4
		c0.2,0,0.3,0,0.5-0.2c0.2-0.1,0.2-0.3,0.3-0.5s-0.1-0.4-0.3-0.6L109.9,117.5z"/>
	<path class="st0" d="M107.9,127.2l-1.1,0.7l-3.9-6l-1.8,1.2l-0.7-1l2.9-1.9L107.9,127.2z"/>
	<path class="st0" d="M100.9,131.4l-1.2,0.6l-3.8-7.5l1.2-0.6L100.9,131.4z"/>
	<path class="st0" d="M94.4,132.2c0.2,0.6,0.3,1.2,0.1,1.6c-0.2,0.5-0.6,0.8-1.2,1c-0.6,0.2-1.1,0.2-1.6,0c-0.4-0.2-0.8-0.6-1-1.3
		l-1.5-4.1c-0.2-0.6-0.3-1.2-0.1-1.6c0.2-0.5,0.6-0.8,1.2-1c0.6-0.2,1.1-0.2,1.6,0c0.4,0.2,0.8,0.6,1,1.3L94.4,132.2z M91.6,128.5
		c-0.1-0.3-0.2-0.5-0.4-0.5c-0.2-0.1-0.3-0.1-0.5,0c-0.2,0.1-0.3,0.2-0.4,0.3c-0.1,0.2-0.1,0.4,0.1,0.7l1.6,4.2
		c0.1,0.3,0.2,0.5,0.4,0.5c0.2,0.1,0.3,0.1,0.5,0c0.2-0.1,0.3-0.2,0.4-0.3c0.1-0.2,0.1-0.4-0.1-0.7L91.6,128.5z"/>
	<path class="st0" d="M78.9,134.9l-0.2-1.3l1.3-0.2l0.2,1.3L78.9,134.9z"/>
	<path class="st0" d="M69.1,132c-0.1,0-0.1,0-0.2,0c-0.1,0-0.2,0-0.2,0c-0.2,0-0.4,0-0.5,0.1c-0.1,0.1-0.2,0.3-0.2,0.6l-0.1,6.4
		l-1.3,0l0.1-6.3c0-0.4,0.1-0.8,0.2-1c0.1-0.3,0.3-0.5,0.4-0.6c0.2-0.2,0.4-0.3,0.6-0.3c0.2-0.1,0.5-0.1,0.7-0.1c0.1,0,0.2,0,0.3,0
		c0.1,0,0.2,0,0.3,0L69.1,132z"/>
	<path class="st0" d="M58.2,129.9l1.3,0.2l0,1.5l1.6,0.2l0.4-1.5l1.2,0.2l-2.5,8.1l-1.9-0.3L58.2,129.9z M60.8,132.9l-1.3-0.2l0,4.3
		L60.8,132.9z"/>
	<path class="st0" d="M51.1,130.6l-2.5,5.5l-1.8-0.5l2.4-8.1l1.2,0.4l-1.7,5.8l2.6-5.5l1.2,0.4l-0.7,6l1.7-5.7l1.1,0.3l-2.4,8.1
		l-1.8-0.5L51.1,130.6z"/>
	<path class="st0" d="M42,133.7l-1.2-0.5l3.4-7.7l1.2,0.5L42,133.7z"/>
	<path class="st0" d="M36.1,130.9l-1.1-0.7l3.6-6.3l-1.9-1.1l0.6-1l3,1.7L36.1,130.9z"/>
	<path class="st0" d="M27.5,116.5l-5.3,4.4l-0.9-0.8l6.6-5.4l1.5,1.3l-4.6,7.1l-1-0.9L27.5,116.5z"/>
	<path class="st0" d="M17.9,116.6l-0.9-1l6.3-5.6l0.9,1L17.9,116.6z"/>
	<path class="st0" d="M13.8,111.7l-0.8-1.1l5.8-4.2l-1.3-1.8l1-0.7l2,2.8L13.8,111.7z"/>
	<path class="st0" d="M9.2,104.8l-0.6-1.2l6.3-3.5l-1.1-1.9l1.1-0.6l1.7,3.1L9.2,104.8z"/>
	<path class="st0" d="M11.6,90.2l0.5,1.2l-1.3,0.8l0.6,1.5l1.5-0.3l0.4,1.1L5,96.4l-0.7-1.8L11.6,90.2z M10.3,94l-0.5-1.2L6.1,95
		L10.3,94z"/>
	<path class="st0" d="M9.8,83.9c-0.1,0-0.1,0.1-0.1,0.1c0,0-0.1,0.1-0.2,0.1c-0.1,0-0.2,0.1-0.3,0.1c-0.1,0-0.2,0.1-0.4,0.1
		l-1.3,0.3c-0.4,0.1-0.6,0.2-0.8,0.4s-0.1,0.4-0.1,0.7l0.1,0.4l3.3-0.8l0.3,1.3l-8.2,2l-0.5-1.9C1.7,86,1.7,85.5,2,85.1
		c0.2-0.4,0.7-0.6,1.3-0.8l0.6-0.2c0.8-0.2,1.5-0.1,1.9,0.4c0.1-0.4,0.2-0.6,0.5-0.8c0.3-0.2,0.6-0.3,1-0.5L8.5,83
		c0.2-0.1,0.4-0.1,0.5-0.2c0.1-0.1,0.3-0.1,0.4-0.2L9.8,83.9z M3.2,87l2.5-0.6l-0.1-0.5c-0.1-0.2-0.2-0.4-0.3-0.5
		c-0.2-0.1-0.4-0.1-0.7,0l-0.8,0.2c-0.3,0.1-0.5,0.2-0.6,0.3S3,86.2,3,86.4L3.2,87z"/>
	<path class="st0" d="M0.3,78.4l6.4-0.7c0.3,0,0.5-0.1,0.6-0.3s0.1-0.3,0.1-0.5c0-0.2-0.1-0.4-0.2-0.5c-0.1-0.1-0.4-0.1-0.7-0.1
		l-6.4,0.7L0,75.8l6.4-0.7c0.7-0.1,1.2,0,1.6,0.3c0.4,0.3,0.6,0.8,0.7,1.4c0.1,0.6-0.1,1.2-0.4,1.5C8,78.7,7.5,78.9,6.8,79l-6.4,0.7
		L0.3,78.4z"/>
	<path class="st0" d="M-0.1,67L1,67l6,2.6l0-2.5l1.2,0L8.2,71l-1.2,0l-6-2.6l0,2.4l-1.2,0L-0.1,67z"/>
	<path class="st0" d="M1.6,54.2c0.1-0.6,0.4-1.1,0.8-1.3c0.4-0.2,1-0.3,1.6-0.1L5.2,53c0.7,0.2,1.1,0.4,1.4,0.8
		c0.3,0.4,0.3,0.9,0.2,1.6L6.6,56l3.1,0.7L9.4,58l-8.2-1.9L1.6,54.2z M2.7,55.1l2.8,0.6l0.1-0.6c0-0.2,0-0.4-0.1-0.5
		c-0.1-0.1-0.3-0.2-0.6-0.3L3.7,54C3.4,54,3.2,54,3.1,54c-0.1,0.1-0.2,0.2-0.3,0.4L2.7,55.1z"/>
	<path class="st0" d="M5.4,48.3c-0.6-0.2-1.1-0.6-1.3-1c-0.2-0.5-0.2-1,0-1.6c0.2-0.6,0.6-1,1-1.2c0.5-0.2,1-0.2,1.6,0.1l4.1,1.5
		c0.6,0.2,1.1,0.6,1.3,1s0.2,1,0,1.6c-0.2,0.6-0.6,1-1,1.2c-0.5,0.2-1,0.2-1.6-0.1L5.4,48.3z M10,48.6c0.3,0.1,0.5,0.1,0.7,0.1
		c0.2-0.1,0.3-0.2,0.3-0.4s0.1-0.4,0-0.5c-0.1-0.2-0.3-0.3-0.5-0.4l-4.2-1.6c-0.3-0.1-0.5-0.1-0.7-0.1c-0.2,0.1-0.3,0.2-0.3,0.4
		c-0.1,0.2-0.1,0.4,0,0.5c0.1,0.2,0.3,0.3,0.5,0.4L10,48.6z"/>
	<path class="st0" d="M15.8,40.7c-0.1,0-0.1,0-0.2,0c0,0-0.1,0-0.2,0c-0.1,0-0.2-0.1-0.3-0.1s-0.2-0.1-0.4-0.2l-1.2-0.6
		c-0.3-0.2-0.6-0.3-0.8-0.2c-0.2,0-0.4,0.2-0.5,0.5l-0.2,0.4l3,1.6l-0.6,1.2l-7.4-4L8,37.4c0.3-0.6,0.7-1,1.1-1.1
		c0.4-0.1,0.9,0,1.5,0.3l0.6,0.3c0.8,0.4,1.1,0.9,1.1,1.6c0.3-0.2,0.6-0.3,0.9-0.3s0.7,0.2,1.1,0.4l1.1,0.6c0.2,0.1,0.3,0.2,0.5,0.2
		c0.1,0.1,0.3,0.1,0.5,0.1L15.8,40.7z M8.7,38.5l2.3,1.2l0.2-0.5c0.1-0.2,0.2-0.4,0.1-0.6c0-0.2-0.2-0.4-0.5-0.5l-0.7-0.4
		c-0.3-0.1-0.5-0.2-0.7-0.2c-0.2,0-0.3,0.1-0.4,0.4L8.7,38.5z"/>
	<path class="st0" d="M11.4,31.6l2.4-3.3l1,0.7L14,30.1l5.9,4.2l-0.8,1.1l-5.9-4.2l-0.8,1.1L11.4,31.6z"/>
	<path class="st0" d="M20.5,26.1l1.1-1.3l0.9,0.8l-1.1,1.3l2.6,2.3l-0.9,1l-6.2-5.7l2.4-2.6l0.9,0.8l-1.5,1.6L20.5,26.1z"/>
	<path class="st0" d="M24,20.1c-0.4-0.5-0.6-1-0.6-1.5c0-0.5,0.3-1,0.8-1.4s1-0.6,1.5-0.5c0.5,0.1,1,0.3,1.4,0.9l2.8,3.3
		c0.4,0.5,0.6,1,0.6,1.5c0,0.5-0.3,1-0.8,1.4s-1,0.6-1.5,0.5s-1-0.3-1.4-0.9L24,20.1z M27.9,22.7c0.2,0.2,0.4,0.4,0.6,0.4
		s0.3,0,0.5-0.2c0.2-0.1,0.2-0.3,0.3-0.5c0-0.2-0.1-0.4-0.3-0.6L26,18.3c-0.2-0.2-0.4-0.4-0.6-0.4s-0.3,0-0.5,0.2
		c-0.2,0.1-0.2,0.3-0.3,0.5s0.1,0.4,0.3,0.6L27.9,22.7z"/>
	<path class="st0" d="M29.9,12.9l1.1-0.7l3.9,6l1.8-1.2l0.7,1L34.5,20L29.9,12.9z"/>
	<path class="st0" d="M36.9,8.7l1.2-0.6l3.8,7.5l-1.2,0.6L36.9,8.7z"/>
	<path class="st0" d="M43.4,7.9c-0.2-0.6-0.3-1.2-0.1-1.6c0.2-0.5,0.6-0.8,1.2-1c0.6-0.2,1.1-0.2,1.6,0c0.5,0.2,0.8,0.6,1,1.3
		l1.5,4.1c0.2,0.6,0.3,1.2,0.1,1.6c-0.2,0.5-0.6,0.8-1.2,1c-0.6,0.2-1.1,0.2-1.6,0c-0.5-0.2-0.8-0.6-1-1.3L43.4,7.9z M46.2,11.6
		c0.1,0.3,0.2,0.5,0.4,0.5c0.2,0.1,0.3,0.1,0.5,0c0.2-0.1,0.3-0.2,0.4-0.4c0.1-0.2,0.1-0.4-0.1-0.7l-1.6-4.2
		c-0.1-0.3-0.2-0.5-0.4-0.5c-0.2-0.1-0.3-0.1-0.5,0c-0.2,0.1-0.3,0.2-0.4,0.4c-0.1,0.2-0.1,0.4,0.1,0.7L46.2,11.6z"/>
	<path class="st0" d="M58.9,5.2l0.2,1.3l-1.3,0.2l-0.2-1.3L58.9,5.2z"/>
</g>
</svg>
